<?xml version="1.0" encoding="utf-8" standalone="no"?>
<!DOCTYPE svg PUBLIC "-//W3C//DTD SVG 1.1//EN"
  "http://www.w3.org/Graphics/SVG/1.1/DTD/svg11.dtd">
<!-- Created with matplotlib (http://matplotlib.org/) -->
<svg height="345.6pt" version="1.1" viewBox="0 0 460.8 345.6" width="460.8pt" xmlns="http://www.w3.org/2000/svg" xmlns:xlink="http://www.w3.org/1999/xlink">
 <defs>
  <style type="text/css">
*{stroke-linecap:butt;stroke-linejoin:round;}
  </style>
 </defs>
 <g id="figure_1">
  <g id="patch_1">
   <path d="M 0 345.6 
L 460.8 345.6 
L 460.8 0 
L 0 0 
z
" style="fill:#ffffff;"/>
  </g>
  <g id="axes_1">
   <g id="patch_2">
    <path d="M 57.6 307.584 
L 414.72 307.584 
L 414.72 41.472 
L 57.6 41.472 
z
" style="fill:#ffffff;"/>
   </g>
   <g id="matplotlib.axis_1">
    <g id="xtick_1">
     <g id="line2d_1">
      <defs>
       <path d="M 0 0 
L 0 3.5 
" id="m5a078f3ce2" style="stroke:#000000;stroke-width:0.8;"/>
      </defs>
      <g>
       <use style="stroke:#000000;stroke-width:0.8;" x="73.832727" xlink:href="#m5a078f3ce2" y="307.584"/>
      </g>
     </g>
     <g id="text_1">
      <!-- −2.0 -->
      <defs>
       <path d="M 10.59375 35.5 
L 73.1875 35.5 
L 73.1875 27.203125 
L 10.59375 27.203125 
z
" id="DejaVuSans-2212"/>
       <path d="M 19.1875 8.296875 
L 53.609375 8.296875 
L 53.609375 0 
L 7.328125 0 
L 7.328125 8.296875 
Q 12.9375 14.109375 22.625 23.890625 
Q 32.328125 33.6875 34.8125 36.53125 
Q 39.546875 41.84375 41.421875 45.53125 
Q 43.3125 49.21875 43.3125 52.78125 
Q 43.3125 58.59375 39.234375 62.25 
Q 35.15625 65.921875 28.609375 65.921875 
Q 23.96875 65.921875 18.8125 64.3125 
Q 13.671875 62.703125 7.8125 59.421875 
L 7.8125 69.390625 
Q 13.765625 71.78125 18.9375 73 
Q 24.125 74.21875 28.421875 74.21875 
Q 39.75 74.21875 46.484375 68.546875 
Q 53.21875 62.890625 53.21875 53.421875 
Q 53.21875 48.921875 51.53125 44.890625 
Q 49.859375 40.875 45.40625 35.40625 
Q 44.1875 33.984375 37.640625 27.21875 
Q 31.109375 20.453125 19.1875 8.296875 
z
" id="DejaVuSans-32"/>
       <path d="M 10.6875 12.40625 
L 21 12.40625 
L 21 0 
L 10.6875 0 
z
" id="DejaVuSans-2e"/>
       <path d="M 31.78125 66.40625 
Q 24.171875 66.40625 20.328125 58.90625 
Q 16.5 51.421875 16.5 36.375 
Q 16.5 21.390625 20.328125 13.890625 
Q 24.171875 6.390625 31.78125 6.390625 
Q 39.453125 6.390625 43.28125 13.890625 
Q 47.125 21.390625 47.125 36.375 
Q 47.125 51.421875 43.28125 58.90625 
Q 39.453125 66.40625 31.78125 66.40625 
z
M 31.78125 74.21875 
Q 44.046875 74.21875 50.515625 64.515625 
Q 56.984375 54.828125 56.984375 36.375 
Q 56.984375 17.96875 50.515625 8.265625 
Q 44.046875 -1.421875 31.78125 -1.421875 
Q 19.53125 -1.421875 13.0625 8.265625 
Q 6.59375 17.96875 6.59375 36.375 
Q 6.59375 54.828125 13.0625 64.515625 
Q 19.53125 74.21875 31.78125 74.21875 
z
" id="DejaVuSans-30"/>
      </defs>
      <g transform="translate(61.691321 322.182437)scale(0.1 -0.1)">
       <use xlink:href="#DejaVuSans-2212"/>
       <use x="83.789062" xlink:href="#DejaVuSans-32"/>
       <use x="147.412109" xlink:href="#DejaVuSans-2e"/>
       <use x="179.199219" xlink:href="#DejaVuSans-30"/>
      </g>
     </g>
    </g>
    <g id="xtick_2">
     <g id="line2d_2">
      <g>
       <use style="stroke:#000000;stroke-width:0.8;" x="114.414545" xlink:href="#m5a078f3ce2" y="307.584"/>
      </g>
     </g>
     <g id="text_2">
      <!-- −1.5 -->
      <defs>
       <path d="M 12.40625 8.296875 
L 28.515625 8.296875 
L 28.515625 63.921875 
L 10.984375 60.40625 
L 10.984375 69.390625 
L 28.421875 72.90625 
L 38.28125 72.90625 
L 38.28125 8.296875 
L 54.390625 8.296875 
L 54.390625 0 
L 12.40625 0 
z
" id="DejaVuSans-31"/>
       <path d="M 10.796875 72.90625 
L 49.515625 72.90625 
L 49.515625 64.59375 
L 19.828125 64.59375 
L 19.828125 46.734375 
Q 21.96875 47.46875 24.109375 47.828125 
Q 26.265625 48.1875 28.421875 48.1875 
Q 40.625 48.1875 47.75 41.5 
Q 54.890625 34.8125 54.890625 23.390625 
Q 54.890625 11.625 47.5625 5.09375 
Q 40.234375 -1.421875 26.90625 -1.421875 
Q 22.3125 -1.421875 17.546875 -0.640625 
Q 12.796875 0.140625 7.71875 1.703125 
L 7.71875 11.625 
Q 12.109375 9.234375 16.796875 8.0625 
Q 21.484375 6.890625 26.703125 6.890625 
Q 35.15625 6.890625 40.078125 11.328125 
Q 45.015625 15.765625 45.015625 23.390625 
Q 45.015625 31 40.078125 35.4375 
Q 35.15625 39.890625 26.703125 39.890625 
Q 22.75 39.890625 18.8125 39.015625 
Q 14.890625 38.140625 10.796875 36.28125 
z
" id="DejaVuSans-35"/>
      </defs>
      <g transform="translate(102.273139 322.182437)scale(0.1 -0.1)">
       <use xlink:href="#DejaVuSans-2212"/>
       <use x="83.789062" xlink:href="#DejaVuSans-31"/>
       <use x="147.412109" xlink:href="#DejaVuSans-2e"/>
       <use x="179.199219" xlink:href="#DejaVuSans-35"/>
      </g>
     </g>
    </g>
    <g id="xtick_3">
     <g id="line2d_3">
      <g>
       <use style="stroke:#000000;stroke-width:0.8;" x="154.996364" xlink:href="#m5a078f3ce2" y="307.584"/>
      </g>
     </g>
     <g id="text_3">
      <!-- −1.0 -->
      <g transform="translate(142.854957 322.182437)scale(0.1 -0.1)">
       <use xlink:href="#DejaVuSans-2212"/>
       <use x="83.789062" xlink:href="#DejaVuSans-31"/>
       <use x="147.412109" xlink:href="#DejaVuSans-2e"/>
       <use x="179.199219" xlink:href="#DejaVuSans-30"/>
      </g>
     </g>
    </g>
    <g id="xtick_4">
     <g id="line2d_4">
      <g>
       <use style="stroke:#000000;stroke-width:0.8;" x="195.578182" xlink:href="#m5a078f3ce2" y="307.584"/>
      </g>
     </g>
     <g id="text_4">
      <!-- −0.5 -->
      <g transform="translate(183.436776 322.182437)scale(0.1 -0.1)">
       <use xlink:href="#DejaVuSans-2212"/>
       <use x="83.789062" xlink:href="#DejaVuSans-30"/>
       <use x="147.412109" xlink:href="#DejaVuSans-2e"/>
       <use x="179.199219" xlink:href="#DejaVuSans-35"/>
      </g>
     </g>
    </g>
    <g id="xtick_5">
     <g id="line2d_5">
      <g>
       <use style="stroke:#000000;stroke-width:0.8;" x="236.16" xlink:href="#m5a078f3ce2" y="307.584"/>
      </g>
     </g>
     <g id="text_5">
      <!-- 0.0 -->
      <g transform="translate(228.208438 322.182437)scale(0.1 -0.1)">
       <use xlink:href="#DejaVuSans-30"/>
       <use x="63.623047" xlink:href="#DejaVuSans-2e"/>
       <use x="95.410156" xlink:href="#DejaVuSans-30"/>
      </g>
     </g>
    </g>
    <g id="xtick_6">
     <g id="line2d_6">
      <g>
       <use style="stroke:#000000;stroke-width:0.8;" x="276.741818" xlink:href="#m5a078f3ce2" y="307.584"/>
      </g>
     </g>
     <g id="text_6">
      <!-- 0.5 -->
      <g transform="translate(268.790256 322.182437)scale(0.1 -0.1)">
       <use xlink:href="#DejaVuSans-30"/>
       <use x="63.623047" xlink:href="#DejaVuSans-2e"/>
       <use x="95.410156" xlink:href="#DejaVuSans-35"/>
      </g>
     </g>
    </g>
    <g id="xtick_7">
     <g id="line2d_7">
      <g>
       <use style="stroke:#000000;stroke-width:0.8;" x="317.323636" xlink:href="#m5a078f3ce2" y="307.584"/>
      </g>
     </g>
     <g id="text_7">
      <!-- 1.0 -->
      <g transform="translate(309.372074 322.182437)scale(0.1 -0.1)">
       <use xlink:href="#DejaVuSans-31"/>
       <use x="63.623047" xlink:href="#DejaVuSans-2e"/>
       <use x="95.410156" xlink:href="#DejaVuSans-30"/>
      </g>
     </g>
    </g>
    <g id="xtick_8">
     <g id="line2d_8">
      <g>
       <use style="stroke:#000000;stroke-width:0.8;" x="357.905455" xlink:href="#m5a078f3ce2" y="307.584"/>
      </g>
     </g>
     <g id="text_8">
      <!-- 1.5 -->
      <g transform="translate(349.953892 322.182437)scale(0.1 -0.1)">
       <use xlink:href="#DejaVuSans-31"/>
       <use x="63.623047" xlink:href="#DejaVuSans-2e"/>
       <use x="95.410156" xlink:href="#DejaVuSans-35"/>
      </g>
     </g>
    </g>
    <g id="xtick_9">
     <g id="line2d_9">
      <g>
       <use style="stroke:#000000;stroke-width:0.8;" x="398.487273" xlink:href="#m5a078f3ce2" y="307.584"/>
      </g>
     </g>
     <g id="text_9">
      <!-- 2.0 -->
      <g transform="translate(390.53571 322.182437)scale(0.1 -0.1)">
       <use xlink:href="#DejaVuSans-32"/>
       <use x="63.623047" xlink:href="#DejaVuSans-2e"/>
       <use x="95.410156" xlink:href="#DejaVuSans-30"/>
      </g>
     </g>
    </g>
   </g>
   <g id="matplotlib.axis_2">
    <g id="ytick_1">
     <g id="line2d_10">
      <defs>
       <path d="M 0 0 
L -3.5 0 
" id="m82ad898d59" style="stroke:#000000;stroke-width:0.8;"/>
      </defs>
      <g>
       <use style="stroke:#000000;stroke-width:0.8;" x="57.6" xlink:href="#m82ad898d59" y="295.488"/>
      </g>
     </g>
     <g id="text_10">
      <!-- −2.0 -->
      <g transform="translate(26.317187 299.287219)scale(0.1 -0.1)">
       <use xlink:href="#DejaVuSans-2212"/>
       <use x="83.789062" xlink:href="#DejaVuSans-32"/>
       <use x="147.412109" xlink:href="#DejaVuSans-2e"/>
       <use x="179.199219" xlink:href="#DejaVuSans-30"/>
      </g>
     </g>
    </g>
    <g id="ytick_2">
     <g id="line2d_11">
      <g>
       <use style="stroke:#000000;stroke-width:0.8;" x="57.6" xlink:href="#m82ad898d59" y="265.248"/>
      </g>
     </g>
     <g id="text_11">
      <!-- −1.5 -->
      <g transform="translate(26.317187 269.047219)scale(0.1 -0.1)">
       <use xlink:href="#DejaVuSans-2212"/>
       <use x="83.789062" xlink:href="#DejaVuSans-31"/>
       <use x="147.412109" xlink:href="#DejaVuSans-2e"/>
       <use x="179.199219" xlink:href="#DejaVuSans-35"/>
      </g>
     </g>
    </g>
    <g id="ytick_3">
     <g id="line2d_12">
      <g>
       <use style="stroke:#000000;stroke-width:0.8;" x="57.6" xlink:href="#m82ad898d59" y="235.008"/>
      </g>
     </g>
     <g id="text_12">
      <!-- −1.0 -->
      <g transform="translate(26.317187 238.807219)scale(0.1 -0.1)">
       <use xlink:href="#DejaVuSans-2212"/>
       <use x="83.789062" xlink:href="#DejaVuSans-31"/>
       <use x="147.412109" xlink:href="#DejaVuSans-2e"/>
       <use x="179.199219" xlink:href="#DejaVuSans-30"/>
      </g>
     </g>
    </g>
    <g id="ytick_4">
     <g id="line2d_13">
      <g>
       <use style="stroke:#000000;stroke-width:0.8;" x="57.6" xlink:href="#m82ad898d59" y="204.768"/>
      </g>
     </g>
     <g id="text_13">
      <!-- −0.5 -->
      <g transform="translate(26.317187 208.567219)scale(0.1 -0.1)">
       <use xlink:href="#DejaVuSans-2212"/>
       <use x="83.789062" xlink:href="#DejaVuSans-30"/>
       <use x="147.412109" xlink:href="#DejaVuSans-2e"/>
       <use x="179.199219" xlink:href="#DejaVuSans-35"/>
      </g>
     </g>
    </g>
    <g id="ytick_5">
     <g id="line2d_14">
      <g>
       <use style="stroke:#000000;stroke-width:0.8;" x="57.6" xlink:href="#m82ad898d59" y="174.528"/>
      </g>
     </g>
     <g id="text_14">
      <!-- 0.0 -->
      <g transform="translate(34.696875 178.327219)scale(0.1 -0.1)">
       <use xlink:href="#DejaVuSans-30"/>
       <use x="63.623047" xlink:href="#DejaVuSans-2e"/>
       <use x="95.410156" xlink:href="#DejaVuSans-30"/>
      </g>
     </g>
    </g>
    <g id="ytick_6">
     <g id="line2d_15">
      <g>
       <use style="stroke:#000000;stroke-width:0.8;" x="57.6" xlink:href="#m82ad898d59" y="144.288"/>
      </g>
     </g>
     <g id="text_15">
      <!-- 0.5 -->
      <g transform="translate(34.696875 148.087219)scale(0.1 -0.1)">
       <use xlink:href="#DejaVuSans-30"/>
       <use x="63.623047" xlink:href="#DejaVuSans-2e"/>
       <use x="95.410156" xlink:href="#DejaVuSans-35"/>
      </g>
     </g>
    </g>
    <g id="ytick_7">
     <g id="line2d_16">
      <g>
       <use style="stroke:#000000;stroke-width:0.8;" x="57.6" xlink:href="#m82ad898d59" y="114.048"/>
      </g>
     </g>
     <g id="text_16">
      <!-- 1.0 -->
      <g transform="translate(34.696875 117.847219)scale(0.1 -0.1)">
       <use xlink:href="#DejaVuSans-31"/>
       <use x="63.623047" xlink:href="#DejaVuSans-2e"/>
       <use x="95.410156" xlink:href="#DejaVuSans-30"/>
      </g>
     </g>
    </g>
    <g id="ytick_8">
     <g id="line2d_17">
      <g>
       <use style="stroke:#000000;stroke-width:0.8;" x="57.6" xlink:href="#m82ad898d59" y="83.808"/>
      </g>
     </g>
     <g id="text_17">
      <!-- 1.5 -->
      <g transform="translate(34.696875 87.607219)scale(0.1 -0.1)">
       <use xlink:href="#DejaVuSans-31"/>
       <use x="63.623047" xlink:href="#DejaVuSans-2e"/>
       <use x="95.410156" xlink:href="#DejaVuSans-35"/>
      </g>
     </g>
    </g>
    <g id="ytick_9">
     <g id="line2d_18">
      <g>
       <use style="stroke:#000000;stroke-width:0.8;" x="57.6" xlink:href="#m82ad898d59" y="53.568"/>
      </g>
     </g>
     <g id="text_18">
      <!-- 2.0 -->
      <g transform="translate(34.696875 57.367219)scale(0.1 -0.1)">
       <use xlink:href="#DejaVuSans-32"/>
       <use x="63.623047" xlink:href="#DejaVuSans-2e"/>
       <use x="95.410156" xlink:href="#DejaVuSans-30"/>
      </g>
     </g>
    </g>
   </g>
   <g id="line2d_19">
    <path clip-path="url(#p860158c46a)" d="M 73.832727 295.488 
L 78.86739 295.488 
L 79.029799 287.928 
L 88.936716 287.928 
L 89.099124 280.368 
L 99.16845 280.368 
L 99.330858 272.808 
L 109.237775 272.808 
L 109.400184 265.248 
L 119.469509 265.248 
L 119.631918 257.688 
L 129.538835 257.688 
L 129.701243 250.128 
L 139.770569 250.128 
L 139.932977 242.568 
L 149.839894 242.568 
L 150.002303 235.008 
L 159.90922 235.008 
L 160.071629 227.448 
L 170.140954 227.448 
L 170.303363 219.888 
L 180.21028 219.888 
L 180.372688 212.328 
L 190.442014 212.328 
L 190.604422 204.768 
L 200.511339 204.768 
L 200.673748 197.208 
L 210.743073 197.208 
L 210.905482 189.648 
L 220.812399 189.648 
L 220.974807 182.088 
L 231.044133 182.088 
L 231.206541 174.528 
L 241.113459 174.528 
L 241.275867 166.968 
L 251.345193 166.968 
L 251.507601 159.408 
L 261.414518 159.408 
L 261.576927 151.848 
L 271.646252 151.848 
L 271.808661 144.288 
L 281.715578 144.288 
L 281.877986 136.728 
L 291.947312 136.728 
L 292.10972 129.168 
L 302.016637 129.168 
L 302.179046 121.608 
L 312.248371 121.608 
L 312.41078 114.048 
L 322.317697 114.048 
L 322.480106 106.488 
L 332.387023 106.488 
L 332.549431 98.928 
L 342.618757 98.928 
L 342.781165 91.368 
L 352.688082 91.368 
L 352.850491 83.808 
L 362.919816 83.808 
L 363.082225 76.248 
L 372.989142 76.248 
L 373.15155 68.688 
L 383.220876 68.688 
L 383.383284 61.128 
L 393.290201 61.128 
L 393.45261 53.568 
L 398.487273 53.568 
L 398.487273 53.568 
" style="fill:none;stroke:#1f77b4;stroke-linecap:square;stroke-width:1.5;"/>
   </g>
   <g id="line2d_20">
    <path clip-path="url(#p860158c46a)" d="M 73.832727 295.488 
L 74.969587 295.488 
L 75.131995 293.598 
L 77.568122 293.598 
L 77.730531 291.708 
L 80.166658 291.708 
L 80.329066 289.818 
L 82.602785 289.818 
L 82.765194 287.928 
L 85.201321 287.928 
L 85.363729 286.038 
L 87.637448 286.038 
L 87.799856 284.148 
L 90.235983 284.148 
L 90.398392 282.258 
L 92.834519 282.258 
L 92.996928 280.368 
L 95.270646 280.368 
L 95.433055 278.478 
L 97.869182 278.478 
L 98.03159 276.588 
L 100.305309 276.588 
L 100.467717 274.698 
L 102.903845 274.698 
L 103.066253 272.808 
L 105.50238 272.808 
L 105.664789 270.918 
L 107.938507 270.918 
L 108.100916 269.028 
L 110.537043 269.028 
L 110.699452 267.138 
L 113.135579 267.138 
L 113.297987 265.248 
L 115.571706 265.248 
L 115.734114 263.358 
L 118.170241 263.358 
L 118.33265 261.468 
L 120.606369 261.468 
L 120.768777 259.578 
L 123.204904 259.578 
L 123.367313 257.688 
L 125.80344 257.688 
L 125.965848 255.798 
L 128.239567 255.798 
L 128.401976 253.908 
L 130.838103 253.908 
L 131.000511 252.018 
L 133.436638 252.018 
L 133.599047 250.128 
L 135.872765 250.128 
L 136.035174 248.238 
L 138.471301 248.238 
L 138.63371 246.348 
L 140.907428 246.348 
L 141.069837 244.458 
L 143.505964 244.458 
L 143.668372 242.568 
L 146.1045 242.568 
L 146.266908 240.678 
L 148.540627 240.678 
L 148.703035 238.788 
L 151.139162 238.788 
L 151.301571 236.898 
L 153.575289 236.898 
L 153.737698 235.008 
L 156.173825 235.008 
L 156.336234 233.118 
L 158.772361 233.118 
L 158.934769 231.228 
L 161.208488 231.228 
L 161.370896 229.338 
L 163.807024 229.338 
L 163.969432 227.448 
L 166.405559 227.448 
L 166.567968 225.558 
L 168.841686 225.558 
L 169.004095 223.668 
L 171.440222 223.668 
L 171.60263 221.778 
L 173.876349 221.778 
L 174.038758 219.888 
L 176.474885 219.888 
L 176.637293 217.998 
L 179.07342 217.998 
L 179.235829 216.108 
L 181.509548 216.108 
L 181.671956 214.218 
L 184.108083 214.218 
L 184.270492 212.328 
L 186.54421 212.328 
L 186.706619 210.438 
L 189.142746 210.438 
L 189.305154 208.548 
L 191.741282 208.548 
L 191.90369 206.658 
L 194.177409 206.658 
L 194.339817 204.768 
L 196.775944 204.768 
L 196.938353 202.878 
L 199.37448 202.878 
L 199.536888 200.988 
L 201.810607 200.988 
L 201.973016 199.098 
L 204.409143 199.098 
L 204.571551 197.208 
L 206.84527 197.208 
L 207.007678 195.318 
L 209.443806 195.318 
L 209.606214 193.428 
L 212.042341 193.428 
L 212.20475 191.538 
L 214.478468 191.538 
L 214.640877 189.648 
L 217.077004 189.648 
L 217.239412 187.758 
L 219.513131 187.758 
L 219.67554 185.868 
L 222.111667 185.868 
L 222.274075 183.978 
L 224.710202 183.978 
L 224.872611 182.088 
L 227.14633 182.088 
L 227.308738 180.198 
L 229.744865 180.198 
L 229.907274 178.308 
L 232.343401 178.308 
L 232.505809 176.418 
L 234.779528 176.418 
L 234.941936 174.528 
L 237.378064 174.528 
L 237.540472 172.638 
L 239.814191 172.638 
L 239.976599 170.748 
L 242.412726 170.748 
L 242.575135 168.858 
L 245.011262 168.858 
L 245.17367 166.968 
L 247.447389 166.968 
L 247.609798 165.078 
L 250.045925 165.078 
L 250.208333 163.188 
L 252.64446 163.188 
L 252.806869 161.298 
L 255.080588 161.298 
L 255.242996 159.408 
L 257.679123 159.408 
L 257.841532 157.518 
L 260.11525 157.518 
L 260.277659 155.628 
L 262.713786 155.628 
L 262.876194 153.738 
L 265.312322 153.738 
L 265.47473 151.848 
L 267.748449 151.848 
L 267.910857 149.958 
L 270.346984 149.958 
L 270.509393 148.068 
L 272.783112 148.068 
L 272.94552 146.178 
L 275.381647 146.178 
L 275.544056 144.288 
L 277.980183 144.288 
L 278.142591 142.398 
L 280.41631 142.398 
L 280.578718 140.508 
L 283.014846 140.508 
L 283.177254 138.618 
L 285.613381 138.618 
L 285.77579 136.728 
L 288.049508 136.728 
L 288.211917 134.838 
L 290.648044 134.838 
L 290.810452 132.948 
L 293.084171 132.948 
L 293.24658 131.058 
L 295.682707 131.058 
L 295.845115 129.168 
L 298.281242 129.168 
L 298.443651 127.278 
L 300.71737 127.278 
L 300.879778 125.388 
L 303.315905 125.388 
L 303.478314 123.498 
L 305.752032 123.498 
L 305.914441 121.608 
L 308.350568 121.608 
L 308.512976 119.718 
L 310.949104 119.718 
L 311.111512 117.828 
L 313.385231 117.828 
L 313.547639 115.938 
L 315.983766 115.938 
L 316.146175 114.048 
L 318.582302 114.048 
L 318.744711 112.158 
L 321.018429 112.158 
L 321.180838 110.268 
L 323.616965 110.268 
L 323.779373 108.378 
L 326.053092 108.378 
L 326.2155 106.488 
L 328.651628 106.488 
L 328.814036 104.598 
L 331.250163 104.598 
L 331.412572 102.708 
L 333.68629 102.708 
L 333.848699 100.818 
L 336.284826 100.818 
L 336.447235 98.928 
L 338.720953 98.928 
L 338.883362 97.038 
L 341.319489 97.038 
L 341.481897 95.148 
L 343.918024 95.148 
L 344.080433 93.258 
L 346.354152 93.258 
L 346.51656 91.368 
L 348.952687 91.368 
L 349.115096 89.478 
L 351.551223 89.478 
L 351.713631 87.588 
L 353.98735 87.588 
L 354.149759 85.698 
L 356.585886 85.698 
L 356.748294 83.808 
L 359.022013 83.808 
L 359.184421 81.918 
L 361.620548 81.918 
L 361.782957 80.028 
L 364.219084 80.028 
L 364.381493 78.138 
L 366.655211 78.138 
L 366.81762 76.248 
L 369.253747 76.248 
L 369.416155 74.358 
L 371.852283 74.358 
L 372.014691 72.468 
L 374.28841 72.468 
L 374.450818 70.578 
L 376.886945 70.578 
L 377.049354 68.688 
L 379.323072 68.688 
L 379.485481 66.798 
L 381.921608 66.798 
L 382.084017 64.908 
L 384.520144 64.908 
L 384.682552 63.018 
L 386.956271 63.018 
L 387.118679 61.128 
L 389.554806 61.128 
L 389.717215 59.238 
L 391.990934 59.238 
L 392.153342 57.348 
L 394.589469 57.348 
L 394.751878 55.458 
L 397.188005 55.458 
L 397.350413 53.568 
L 398.487273 53.568 
L 398.487273 53.568 
" style="fill:none;stroke:#ff7f0e;stroke-linecap:square;stroke-width:1.5;"/>
   </g>
   <g id="line2d_21">
    <path clip-path="url(#p860158c46a)" d="M 73.832727 235.008 
L 155.199374 235.008 
L 155.361783 234.5355 
L 155.849008 234.5355 
L 156.011417 234.063 
L 156.498642 234.063 
L 156.661051 233.5905 
L 157.148276 233.5905 
L 157.310684 233.118 
L 157.79791 233.118 
L 157.960318 232.6455 
L 158.447544 232.6455 
L 158.609952 232.173 
L 159.097178 232.173 
L 159.259586 231.7005 
L 159.746812 231.7005 
L 159.90922 231.228 
L 160.234037 231.228 
L 160.396445 230.7555 
L 160.883671 230.7555 
L 161.046079 230.283 
L 161.533305 230.283 
L 161.695713 229.8105 
L 162.182939 229.8105 
L 162.345347 229.338 
L 162.832573 229.338 
L 162.994981 228.8655 
L 163.482207 228.8655 
L 163.644615 228.393 
L 164.13184 228.393 
L 164.294249 227.9205 
L 164.781474 227.9205 
L 164.943883 227.448 
L 165.431108 227.448 
L 165.593517 226.9755 
L 166.080742 226.9755 
L 166.243151 226.503 
L 166.567968 226.503 
L 166.730376 226.0305 
L 167.217602 226.0305 
L 167.38001 225.558 
L 167.867235 225.558 
L 168.029644 225.0855 
L 168.516869 225.0855 
L 168.679278 224.613 
L 169.166503 224.613 
L 169.328912 224.1405 
L 169.816137 224.1405 
L 169.978546 223.668 
L 170.465771 223.668 
L 170.62818 223.1955 
L 171.115405 223.1955 
L 171.277813 222.723 
L 171.765039 222.723 
L 171.927447 222.2505 
L 172.414673 222.2505 
L 172.577081 221.778 
L 173.064307 221.778 
L 173.226715 221.3055 
L 173.551532 221.3055 
L 173.713941 220.833 
L 174.201166 220.833 
L 174.363575 220.3605 
L 174.8508 220.3605 
L 175.013208 219.888 
L 175.500434 219.888 
L 175.662842 219.4155 
L 176.150068 219.4155 
L 176.312476 218.943 
L 176.799702 218.943 
L 176.96211 218.4705 
L 177.449336 218.4705 
L 177.611744 217.998 
L 178.098969 217.998 
L 178.261378 217.5255 
L 178.748603 217.5255 
L 178.911012 217.053 
L 179.398237 217.053 
L 179.560646 216.5805 
L 179.885463 216.5805 
L 180.047871 216.108 
L 180.535097 216.108 
L 180.697505 215.6355 
L 181.184731 215.6355 
L 181.347139 215.163 
L 181.834364 215.163 
L 181.996773 214.6905 
L 182.483998 214.6905 
L 182.646407 214.218 
L 183.133632 214.218 
L 183.296041 213.7455 
L 183.783266 213.7455 
L 183.945675 213.273 
L 184.4329 213.273 
L 184.595309 212.8005 
L 185.082534 212.8005 
L 185.244942 212.328 
L 185.732168 212.328 
L 185.894576 211.8555 
L 186.381802 211.8555 
L 186.54421 211.383 
L 186.869027 211.383 
L 187.031436 210.9105 
L 187.518661 210.9105 
L 187.68107 210.438 
L 188.168295 210.438 
L 188.330704 209.9655 
L 188.817929 209.9655 
L 188.980337 209.493 
L 189.467563 209.493 
L 189.629971 209.0205 
L 190.117197 209.0205 
L 190.279605 208.548 
L 190.766831 208.548 
L 190.929239 208.0755 
L 191.416465 208.0755 
L 191.578873 207.603 
L 192.066099 207.603 
L 192.228507 207.1305 
L 192.715732 207.1305 
L 192.878141 206.658 
L 193.202958 206.658 
L 193.365366 206.1855 
L 193.852592 206.1855 
L 194.015 205.713 
L 194.502226 205.713 
L 194.664634 205.2405 
L 195.15186 205.2405 
L 195.314268 204.768 
L 195.801493 204.768 
L 195.963902 204.2955 
L 196.451127 204.2955 
L 196.613536 203.823 
L 197.100761 203.823 
L 197.26317 203.3505 
L 197.750395 203.3505 
L 197.912804 202.878 
L 198.400029 202.878 
L 198.562438 202.4055 
L 199.049663 202.4055 
L 199.212071 201.933 
L 199.699297 201.933 
L 199.861705 201.4605 
L 200.186522 201.4605 
L 200.348931 200.988 
L 200.836156 200.988 
L 200.998565 200.5155 
L 201.48579 200.5155 
L 201.648199 200.043 
L 202.135424 200.043 
L 202.297833 199.5705 
L 202.785058 199.5705 
L 202.947466 199.098 
L 203.434692 199.098 
L 203.5971 198.6255 
L 204.084326 198.6255 
L 204.246734 198.153 
L 204.73396 198.153 
L 204.896368 197.6805 
L 205.383594 197.6805 
L 205.546002 197.208 
L 206.033228 197.208 
L 206.195636 196.7355 
L 206.520453 196.7355 
L 206.682861 196.263 
L 207.170087 196.263 
L 207.332495 195.7905 
L 207.819721 195.7905 
L 207.982129 195.318 
L 208.469355 195.318 
L 208.631763 194.8455 
L 209.118989 194.8455 
L 209.281397 194.373 
L 209.768622 194.373 
L 209.931031 193.9005 
L 210.418256 193.9005 
L 210.580665 193.428 
L 211.06789 193.428 
L 211.230299 192.9555 
L 211.717524 192.9555 
L 211.879933 192.483 
L 212.367158 192.483 
L 212.529567 192.0105 
L 212.854384 192.0105 
L 213.016792 191.538 
L 213.504017 191.538 
L 213.666426 191.0655 
L 214.153651 191.0655 
L 214.31606 190.593 
L 214.803285 190.593 
L 214.965694 190.1205 
L 215.452919 190.1205 
L 215.615328 189.648 
L 216.102553 189.648 
L 216.264962 189.1755 
L 216.752187 189.1755 
L 216.914595 188.703 
L 217.401821 188.703 
L 217.564229 188.2305 
L 218.051455 188.2305 
L 218.213863 187.758 
L 218.701089 187.758 
L 218.863497 187.2855 
L 219.350723 187.2855 
L 219.513131 186.813 
L 219.837948 186.813 
L 220.000357 186.3405 
L 220.487582 186.3405 
L 220.64999 185.868 
L 221.137216 185.868 
L 221.299624 185.3955 
L 221.78685 185.3955 
L 221.949258 184.923 
L 222.436484 184.923 
L 222.598892 184.4505 
L 223.086118 184.4505 
L 223.248526 183.978 
L 223.735752 183.978 
L 223.89816 183.5055 
L 224.385385 183.5055 
L 224.547794 183.033 
L 225.035019 183.033 
L 225.197428 182.5605 
L 225.684653 182.5605 
L 225.847062 182.088 
L 226.171879 182.088 
L 226.334287 181.6155 
L 226.821513 181.6155 
L 226.983921 181.143 
L 227.471146 181.143 
L 227.633555 180.6705 
L 228.12078 180.6705 
L 228.283189 180.198 
L 228.770414 180.198 
L 228.932823 179.7255 
L 229.420048 179.7255 
L 229.582457 179.253 
L 230.069682 179.253 
L 230.232091 178.7805 
L 230.719316 178.7805 
L 230.881724 178.308 
L 231.36895 178.308 
L 231.531358 177.8355 
L 232.018584 177.8355 
L 232.180992 177.363 
L 232.668218 177.363 
L 232.830626 176.8905 
L 233.155443 176.8905 
L 233.317852 176.418 
L 233.805077 176.418 
L 233.967486 175.9455 
L 234.454711 175.9455 
L 234.617119 175.473 
L 235.104345 175.473 
L 235.266753 175.0005 
L 235.753979 175.0005 
L 235.916387 174.528 
L 236.403613 174.528 
L 236.566021 174.0555 
L 237.053247 174.0555 
L 237.215655 173.583 
L 237.702881 173.583 
L 237.865289 173.1105 
L 238.352514 173.1105 
L 238.514923 172.638 
L 239.002148 172.638 
L 239.164557 172.1655 
L 239.489374 172.1655 
L 239.651782 171.693 
L 240.139008 171.693 
L 240.301416 171.2205 
L 240.788642 171.2205 
L 240.95105 170.748 
L 241.438276 170.748 
L 241.600684 170.2755 
L 242.087909 170.2755 
L 242.250318 169.803 
L 242.737543 169.803 
L 242.899952 169.3305 
L 243.387177 169.3305 
L 243.549586 168.858 
L 244.036811 168.858 
L 244.19922 168.3855 
L 244.686445 168.3855 
L 244.848854 167.913 
L 245.336079 167.913 
L 245.498487 167.4405 
L 245.985713 167.4405 
L 246.148121 166.968 
L 246.472938 166.968 
L 246.635347 166.4955 
L 247.122572 166.4955 
L 247.284981 166.023 
L 247.772206 166.023 
L 247.934615 165.5505 
L 248.42184 165.5505 
L 248.584248 165.078 
L 249.071474 165.078 
L 249.233882 164.6055 
L 249.721108 164.6055 
L 249.883516 164.133 
L 250.370742 164.133 
L 250.53315 163.6605 
L 251.020376 163.6605 
L 251.182784 163.188 
L 251.67001 163.188 
L 251.832418 162.7155 
L 252.319643 162.7155 
L 252.482052 162.243 
L 252.806869 162.243 
L 252.969277 161.7705 
L 253.456503 161.7705 
L 253.618911 161.298 
L 254.106137 161.298 
L 254.268545 160.8255 
L 254.755771 160.8255 
L 254.918179 160.353 
L 255.405405 160.353 
L 255.567813 159.8805 
L 256.055038 159.8805 
L 256.217447 159.408 
L 256.704672 159.408 
L 256.867081 158.9355 
L 257.354306 158.9355 
L 257.516715 158.463 
L 258.00394 158.463 
L 258.166349 157.9905 
L 258.653574 157.9905 
L 258.815983 157.518 
L 259.303208 157.518 
L 259.465616 157.0455 
L 259.790433 157.0455 
L 259.952842 156.573 
L 260.440067 156.573 
L 260.602476 156.1005 
L 261.089701 156.1005 
L 261.25211 155.628 
L 261.739335 155.628 
L 261.901744 155.1555 
L 262.388969 155.1555 
L 262.551378 154.683 
L 263.038603 154.683 
L 263.201011 154.2105 
L 263.688237 154.2105 
L 263.850645 153.738 
L 264.337871 153.738 
L 264.500279 153.2655 
L 264.987505 153.2655 
L 265.149913 152.793 
L 265.637139 152.793 
L 265.799547 152.3205 
L 266.124364 152.3205 
L 266.286772 151.848 
L 266.773998 151.848 
L 266.936406 151.3755 
L 267.423632 151.3755 
L 267.58604 150.903 
L 268.073266 150.903 
L 268.235674 150.4305 
L 268.7229 150.4305 
L 268.885308 149.958 
L 269.372534 149.958 
L 269.534942 149.4855 
L 270.022167 149.4855 
L 270.184576 149.013 
L 270.671801 149.013 
L 270.83421 148.5405 
L 271.321435 148.5405 
L 271.483844 148.068 
L 271.971069 148.068 
L 272.133478 147.5955 
L 272.458295 147.5955 
L 272.620703 147.123 
L 273.107929 147.123 
L 273.270337 146.6505 
L 273.757562 146.6505 
L 273.919971 146.178 
L 274.407196 146.178 
L 274.569605 145.7055 
L 275.05683 145.7055 
L 275.219239 145.233 
L 275.706464 145.233 
L 275.868873 144.7605 
L 276.356098 144.7605 
L 276.518507 144.288 
L 277.005732 144.288 
L 277.16814 143.8155 
L 277.655366 143.8155 
L 277.817774 143.343 
L 278.305 143.343 
L 278.467408 142.8705 
L 278.954634 142.8705 
L 279.117042 142.398 
L 279.441859 142.398 
L 279.604268 141.9255 
L 280.091493 141.9255 
L 280.253901 141.453 
L 280.741127 141.453 
L 280.903535 140.9805 
L 281.390761 140.9805 
L 281.553169 140.508 
L 282.040395 140.508 
L 282.202803 140.0355 
L 282.690029 140.0355 
L 282.852437 139.563 
L 283.339663 139.563 
L 283.502071 139.0905 
L 283.989296 139.0905 
L 284.151705 138.618 
L 284.63893 138.618 
L 284.801339 138.1455 
L 285.288564 138.1455 
L 285.450973 137.673 
L 285.77579 137.673 
L 285.938198 137.2005 
L 286.425424 137.2005 
L 286.587832 136.728 
L 287.075058 136.728 
L 287.237466 136.2555 
L 287.724691 136.2555 
L 287.8871 135.783 
L 288.374325 135.783 
L 288.536734 135.3105 
L 289.023959 135.3105 
L 289.186368 134.838 
L 289.673593 134.838 
L 289.836002 134.3655 
L 290.323227 134.3655 
L 290.485636 133.893 
L 290.972861 133.893 
L 291.135269 133.4205 
L 291.622495 133.4205 
L 291.784903 132.948 
L 292.272129 132.948 
L 292.434537 132.4755 
L 292.759354 132.4755 
L 292.921763 132.003 
L 293.408988 132.003 
L 293.571397 131.5305 
L 294.058622 131.5305 
L 294.221031 131.058 
L 294.708256 131.058 
L 294.870664 130.5855 
L 295.35789 130.5855 
L 295.520298 130.113 
L 296.007524 130.113 
L 296.169932 129.6405 
L 296.657158 129.6405 
L 296.819566 129.168 
L 297.306792 129.168 
L 297.4692 128.6955 
L 297.956425 128.6955 
L 298.118834 128.223 
L 298.606059 128.223 
L 298.768468 127.7505 
L 299.093285 127.7505 
L 299.255693 127.278 
L 299.742919 127.278 
L 299.905327 126.8055 
L 300.392553 126.8055 
L 300.554961 126.333 
L 301.042187 126.333 
L 301.204595 125.8605 
L 301.69182 125.8605 
L 301.854229 125.388 
L 302.341454 125.388 
L 302.503863 124.9155 
L 302.991088 124.9155 
L 303.153497 124.443 
L 303.640722 124.443 
L 303.803131 123.9705 
L 304.290356 123.9705 
L 304.452765 123.498 
L 304.93999 123.498 
L 305.102398 123.0255 
L 305.589624 123.0255 
L 305.752032 122.553 
L 306.076849 122.553 
L 306.239258 122.0805 
L 306.726483 122.0805 
L 306.888892 121.608 
L 307.376117 121.608 
L 307.538526 121.1355 
L 308.025751 121.1355 
L 308.18816 120.663 
L 308.675385 120.663 
L 308.837793 120.1905 
L 309.325019 120.1905 
L 309.487427 119.718 
L 309.974653 119.718 
L 310.137061 119.2455 
L 310.624287 119.2455 
L 310.786695 118.773 
L 311.273921 118.773 
L 311.436329 118.3005 
L 311.923555 118.3005 
L 312.085963 117.828 
L 312.41078 117.828 
L 312.573188 117.3555 
L 313.060414 117.3555 
L 313.222822 116.883 
L 313.710048 116.883 
L 313.872456 116.4105 
L 314.359682 116.4105 
L 314.52209 115.938 
L 315.009316 115.938 
L 315.171724 115.4655 
L 315.658949 115.4655 
L 315.821358 114.993 
L 316.308583 114.993 
L 316.470992 114.5205 
L 398.487273 114.5205 
L 398.487273 114.5205 
" style="fill:none;stroke:#2ca02c;stroke-linecap:square;stroke-width:1.5;"/>
   </g>
   <g id="patch_3">
    <path d="M 57.6 307.584 
L 57.6 41.472 
" style="fill:none;stroke:#000000;stroke-linecap:square;stroke-linejoin:miter;stroke-width:0.8;"/>
   </g>
   <g id="patch_4">
    <path d="M 414.72 307.584 
L 414.72 41.472 
" style="fill:none;stroke:#000000;stroke-linecap:square;stroke-linejoin:miter;stroke-width:0.8;"/>
   </g>
   <g id="patch_5">
    <path d="M 57.6 307.584 
L 414.72 307.584 
" style="fill:none;stroke:#000000;stroke-linecap:square;stroke-linejoin:miter;stroke-width:0.8;"/>
   </g>
   <g id="patch_6">
    <path d="M 57.6 41.472 
L 414.72 41.472 
" style="fill:none;stroke:#000000;stroke-linecap:square;stroke-linejoin:miter;stroke-width:0.8;"/>
   </g>
   <g id="text_19">
    <!-- truncation -->
    <defs>
     <path d="M 18.3125 70.21875 
L 18.3125 54.6875 
L 36.8125 54.6875 
L 36.8125 47.703125 
L 18.3125 47.703125 
L 18.3125 18.015625 
Q 18.3125 11.328125 20.140625 9.421875 
Q 21.96875 7.515625 27.59375 7.515625 
L 36.8125 7.515625 
L 36.8125 0 
L 27.59375 0 
Q 17.1875 0 13.234375 3.875 
Q 9.28125 7.765625 9.28125 18.015625 
L 9.28125 47.703125 
L 2.6875 47.703125 
L 2.6875 54.6875 
L 9.28125 54.6875 
L 9.28125 70.21875 
z
" id="DejaVuSans-74"/>
     <path d="M 41.109375 46.296875 
Q 39.59375 47.171875 37.8125 47.578125 
Q 36.03125 48 33.890625 48 
Q 26.265625 48 22.1875 43.046875 
Q 18.109375 38.09375 18.109375 28.8125 
L 18.109375 0 
L 9.078125 0 
L 9.078125 54.6875 
L 18.109375 54.6875 
L 18.109375 46.1875 
Q 20.953125 51.171875 25.484375 53.578125 
Q 30.03125 56 36.53125 56 
Q 37.453125 56 38.578125 55.875 
Q 39.703125 55.765625 41.0625 55.515625 
z
" id="DejaVuSans-72"/>
     <path d="M 8.5 21.578125 
L 8.5 54.6875 
L 17.484375 54.6875 
L 17.484375 21.921875 
Q 17.484375 14.15625 20.5 10.265625 
Q 23.53125 6.390625 29.59375 6.390625 
Q 36.859375 6.390625 41.078125 11.03125 
Q 45.3125 15.671875 45.3125 23.6875 
L 45.3125 54.6875 
L 54.296875 54.6875 
L 54.296875 0 
L 45.3125 0 
L 45.3125 8.40625 
Q 42.046875 3.421875 37.71875 1 
Q 33.40625 -1.421875 27.6875 -1.421875 
Q 18.265625 -1.421875 13.375 4.4375 
Q 8.5 10.296875 8.5 21.578125 
z
M 31.109375 56 
z
" id="DejaVuSans-75"/>
     <path d="M 54.890625 33.015625 
L 54.890625 0 
L 45.90625 0 
L 45.90625 32.71875 
Q 45.90625 40.484375 42.875 44.328125 
Q 39.84375 48.1875 33.796875 48.1875 
Q 26.515625 48.1875 22.3125 43.546875 
Q 18.109375 38.921875 18.109375 30.90625 
L 18.109375 0 
L 9.078125 0 
L 9.078125 54.6875 
L 18.109375 54.6875 
L 18.109375 46.1875 
Q 21.34375 51.125 25.703125 53.5625 
Q 30.078125 56 35.796875 56 
Q 45.21875 56 50.046875 50.171875 
Q 54.890625 44.34375 54.890625 33.015625 
z
" id="DejaVuSans-6e"/>
     <path d="M 48.78125 52.59375 
L 48.78125 44.1875 
Q 44.96875 46.296875 41.140625 47.34375 
Q 37.3125 48.390625 33.40625 48.390625 
Q 24.65625 48.390625 19.8125 42.84375 
Q 14.984375 37.3125 14.984375 27.296875 
Q 14.984375 17.28125 19.8125 11.734375 
Q 24.65625 6.203125 33.40625 6.203125 
Q 37.3125 6.203125 41.140625 7.25 
Q 44.96875 8.296875 48.78125 10.40625 
L 48.78125 2.09375 
Q 45.015625 0.34375 40.984375 -0.53125 
Q 36.96875 -1.421875 32.421875 -1.421875 
Q 20.0625 -1.421875 12.78125 6.34375 
Q 5.515625 14.109375 5.515625 27.296875 
Q 5.515625 40.671875 12.859375 48.328125 
Q 20.21875 56 33.015625 56 
Q 37.15625 56 41.109375 55.140625 
Q 45.0625 54.296875 48.78125 52.59375 
z
" id="DejaVuSans-63"/>
     <path d="M 34.28125 27.484375 
Q 23.390625 27.484375 19.1875 25 
Q 14.984375 22.515625 14.984375 16.5 
Q 14.984375 11.71875 18.140625 8.90625 
Q 21.296875 6.109375 26.703125 6.109375 
Q 34.1875 6.109375 38.703125 11.40625 
Q 43.21875 16.703125 43.21875 25.484375 
L 43.21875 27.484375 
z
M 52.203125 31.203125 
L 52.203125 0 
L 43.21875 0 
L 43.21875 8.296875 
Q 40.140625 3.328125 35.546875 0.953125 
Q 30.953125 -1.421875 24.3125 -1.421875 
Q 15.921875 -1.421875 10.953125 3.296875 
Q 6 8.015625 6 15.921875 
Q 6 25.140625 12.171875 29.828125 
Q 18.359375 34.515625 30.609375 34.515625 
L 43.21875 34.515625 
L 43.21875 35.40625 
Q 43.21875 41.609375 39.140625 45 
Q 35.0625 48.390625 27.6875 48.390625 
Q 23 48.390625 18.546875 47.265625 
Q 14.109375 46.140625 10.015625 43.890625 
L 10.015625 52.203125 
Q 14.9375 54.109375 19.578125 55.046875 
Q 24.21875 56 28.609375 56 
Q 40.484375 56 46.34375 49.84375 
Q 52.203125 43.703125 52.203125 31.203125 
z
" id="DejaVuSans-61"/>
     <path d="M 9.421875 54.6875 
L 18.40625 54.6875 
L 18.40625 0 
L 9.421875 0 
z
M 9.421875 75.984375 
L 18.40625 75.984375 
L 18.40625 64.59375 
L 9.421875 64.59375 
z
" id="DejaVuSans-69"/>
     <path d="M 30.609375 48.390625 
Q 23.390625 48.390625 19.1875 42.75 
Q 14.984375 37.109375 14.984375 27.296875 
Q 14.984375 17.484375 19.15625 11.84375 
Q 23.34375 6.203125 30.609375 6.203125 
Q 37.796875 6.203125 41.984375 11.859375 
Q 46.1875 17.53125 46.1875 27.296875 
Q 46.1875 37.015625 41.984375 42.703125 
Q 37.796875 48.390625 30.609375 48.390625 
z
M 30.609375 56 
Q 42.328125 56 49.015625 48.375 
Q 55.71875 40.765625 55.71875 27.296875 
Q 55.71875 13.875 49.015625 6.21875 
Q 42.328125 -1.421875 30.609375 -1.421875 
Q 18.84375 -1.421875 12.171875 6.21875 
Q 5.515625 13.875 5.515625 27.296875 
Q 5.515625 40.765625 12.171875 48.375 
Q 18.84375 56 30.609375 56 
z
" id="DejaVuSans-6f"/>
    </defs>
    <g transform="translate(205.2675 35.472)scale(0.12 -0.12)">
     <use xlink:href="#DejaVuSans-74"/>
     <use x="39.208984" xlink:href="#DejaVuSans-72"/>
     <use x="80.322266" xlink:href="#DejaVuSans-75"/>
     <use x="143.701172" xlink:href="#DejaVuSans-6e"/>
     <use x="207.080078" xlink:href="#DejaVuSans-63"/>
     <use x="262.060547" xlink:href="#DejaVuSans-61"/>
     <use x="323.339844" xlink:href="#DejaVuSans-74"/>
     <use x="362.548828" xlink:href="#DejaVuSans-69"/>
     <use x="390.332031" xlink:href="#DejaVuSans-6f"/>
     <use x="451.513672" xlink:href="#DejaVuSans-6e"/>
    </g>
   </g>
   <g id="legend_1">
    <g id="patch_7">
     <path d="M 64.6 93.506375 
L 102.9625 93.506375 
Q 104.9625 93.506375 104.9625 91.506375 
L 104.9625 48.472 
Q 104.9625 46.472 102.9625 46.472 
L 64.6 46.472 
Q 62.6 46.472 62.6 48.472 
L 62.6 91.506375 
Q 62.6 93.506375 64.6 93.506375 
z
" style="fill:#ffffff;opacity:0.8;stroke:#cccccc;stroke-linejoin:miter;"/>
    </g>
    <g id="line2d_22">
     <path d="M 66.6 54.570438 
L 86.6 54.570438 
" style="fill:none;stroke:#1f77b4;stroke-linecap:square;stroke-width:1.5;"/>
    </g>
    <g id="line2d_23"/>
    <g id="text_20">
     <!-- 3 -->
     <defs>
      <path d="M 40.578125 39.3125 
Q 47.65625 37.796875 51.625 33 
Q 55.609375 28.21875 55.609375 21.1875 
Q 55.609375 10.40625 48.1875 4.484375 
Q 40.765625 -1.421875 27.09375 -1.421875 
Q 22.515625 -1.421875 17.65625 -0.515625 
Q 12.796875 0.390625 7.625 2.203125 
L 7.625 11.71875 
Q 11.71875 9.328125 16.59375 8.109375 
Q 21.484375 6.890625 26.8125 6.890625 
Q 36.078125 6.890625 40.9375 10.546875 
Q 45.796875 14.203125 45.796875 21.1875 
Q 45.796875 27.640625 41.28125 31.265625 
Q 36.765625 34.90625 28.71875 34.90625 
L 20.21875 34.90625 
L 20.21875 43.015625 
L 29.109375 43.015625 
Q 36.375 43.015625 40.234375 45.921875 
Q 44.09375 48.828125 44.09375 54.296875 
Q 44.09375 59.90625 40.109375 62.90625 
Q 36.140625 65.921875 28.71875 65.921875 
Q 24.65625 65.921875 20.015625 65.03125 
Q 15.375 64.15625 9.8125 62.3125 
L 9.8125 71.09375 
Q 15.4375 72.65625 20.34375 73.4375 
Q 25.25 74.21875 29.59375 74.21875 
Q 40.828125 74.21875 47.359375 69.109375 
Q 53.90625 64.015625 53.90625 55.328125 
Q 53.90625 49.265625 50.4375 45.09375 
Q 46.96875 40.921875 40.578125 39.3125 
z
" id="DejaVuSans-33"/>
     </defs>
     <g transform="translate(94.6 58.070438)scale(0.1 -0.1)">
      <use xlink:href="#DejaVuSans-33"/>
     </g>
    </g>
    <g id="line2d_24">
     <path d="M 66.6 69.248563 
L 86.6 69.248563 
" style="fill:none;stroke:#ff7f0e;stroke-linecap:square;stroke-width:1.5;"/>
    </g>
    <g id="line2d_25"/>
    <g id="text_21">
     <!-- 5 -->
     <g transform="translate(94.6 72.748563)scale(0.1 -0.1)">
      <use xlink:href="#DejaVuSans-35"/>
     </g>
    </g>
    <g id="line2d_26">
     <path d="M 66.6 83.926688 
L 86.6 83.926688 
" style="fill:none;stroke:#2ca02c;stroke-linecap:square;stroke-width:1.5;"/>
    </g>
    <g id="line2d_27"/>
    <g id="text_22">
     <!-- 7 -->
     <defs>
      <path d="M 8.203125 72.90625 
L 55.078125 72.90625 
L 55.078125 68.703125 
L 28.609375 0 
L 18.3125 0 
L 43.21875 64.59375 
L 8.203125 64.59375 
z
" id="DejaVuSans-37"/>
     </defs>
     <g transform="translate(94.6 87.426688)scale(0.1 -0.1)">
      <use xlink:href="#DejaVuSans-37"/>
     </g>
    </g>
   </g>
  </g>
 </g>
 <defs>
  <clipPath id="p860158c46a">
   <rect height="266.112" width="357.12" x="57.6" y="41.472"/>
  </clipPath>
 </defs>
</svg>
